<svg width="1024px" height="1024px" viewBox="0 0 1024 1024" version="1.1" xmlns="http://www.w3.org/2000/svg" xmlns:xlink="http://www.w3.org/1999/xlink">
    <title>SVG /logoMark_outlineOnWhite</title>
    <defs>
        <linearGradient x1="19.5677421%" y1="3.82838664%" x2="62.0298413%" y2="74.6918233%" id="linearGradient-1">
            <stop stop-color="#FFFFFF" stop-opacity="0.5" offset="0%"></stop>
            <stop stop-color="#C9C9C9" stop-opacity="0.5" offset="100%"></stop>
        </linearGradient>
        <path d="M535.230805,0 C553.255197,0 569.940038,9.70845612 578.392901,25.4905528 C586.491831,40.6075418 586.148111,58.4214741 577.494885,73.2076135 L577.200057,73.7048678 L501.356961,199.99035 C492.780159,214.270507 477.296993,223.183466 460.747987,223.373492 L460.207975,223.376592 L373.600551,223.37594 L409.597598,305.405078 L409.741106,305.645568 L409.962492,306.03292 C418.439724,321.28412 418.233167,339.416765 409.441658,354.4408 L409.145428,354.940442 L333.302333,481.225923 C324.72564,495.5059 309.242576,504.419036 292.694506,504.609066 L292.154525,504.612166 L185.854219,504.611527 L109.436938,584.83791 L109.292358,584.986923 C102.101312,592.263155 92.385306,596.322192 82.2553237,596.322192 C79.7230176,596.322192 77.1890727,596.06724 74.6823027,595.558599 C62.3254366,593.047599 52.0588566,584.607809 47.1169756,572.967587 L46.9775697,572.635291 L6.76275895,480.746344 L6.5512151,480.394176 L6.33149193,480.014818 C6.29499483,479.950321 6.25787551,479.883994 6.21910804,479.814047 C-2.25829764,464.564062 -2.05296677,446.431579 6.73742919,431.406896 L7.03362191,430.907232 L80.593605,308.423575 L27.3841882,184.404953 L27.3691568,184.330709 C25.0756974,172.969283 26.921925,161.120967 32.8118846,150.743652 L33.1371649,150.179087 L33.4378574,149.671724 L109.281407,23.3854857 C117.859199,9.10621534 133.343034,0.193128751 149.889995,0 L150.429939,0 L535.230805,0 Z M136.992936,503.651525 L56.408856,503.6505 L80.0771139,558.147675 L80.135282,558.292412 C80.5276552,559.26873 81.1622817,559.802926 82.1068547,559.996219 C82.9494301,560.169248 83.6311198,559.991123 84.2758727,559.406287 L84.3885737,559.297096 L136.992936,503.651525 Z M367.357307,316.292514 L123.771004,316.292514 C123.501999,316.292514 123.233018,316.301697 122.964499,316.319949 L122.890722,316.325401 L189.680152,468.394965 L292.14245,468.394965 C296.35417,468.394965 300.411388,466.150622 302.71838,462.545754 L302.901566,462.250503 L378.854367,335.887532 C381.120398,332.118189 381.370948,327.744791 379.575513,323.809196 C377.505596,319.271006 372.70067,316.292514 367.357307,316.292514 Z M98.45003,347.518845 L38.1684594,448.652775 C35.7697794,452.678087 35.6307548,457.392126 37.7787376,461.540719 L38.0065778,461.962606 L38.1279747,462.169226 L38.3712879,462.565292 L38.8533805,463.2789 L39.3915618,463.975862 L39.9064585,464.561307 L39.9957823,464.656166 L40.3439612,465.007243 L40.6465215,465.293833 C42.5427459,467.007146 44.8868069,468.052457 47.4721923,468.321033 L48.052973,468.370393 L48.3892838,468.387895 L48.815409,468.394965 L151.09515,468.394965 L98.45003,347.518845 Z M82.598682,223.620822 L109.07367,284.058882 L109.589413,283.883864 C114.161451,282.360959 118.941715,281.535455 123.774352,281.460289 L124.499621,281.454649 L360.613758,281.453989 L335.280534,223.621854 L82.598682,223.620822 Z M534.558036,35.255535 L290.102688,35.255535 L356.912302,187.357986 L459.337487,187.357986 C463.556921,187.357986 467.617746,185.112138 469.925926,181.505205 L470.109203,181.209785 L546.067005,54.8492509 C548.332,51.0808556 548.582401,46.7107345 546.789035,42.7785799 C544.761118,38.333515 540.111418,35.3831072 534.898768,35.2595702 L534.558036,35.255535 Z M252.680558,35.255535 L150.821658,35.255535 C146.632874,35.255535 142.592983,37.49592 140.294826,41.0972537 L140.112337,41.3922188 L64.3541437,167.755189 C62.0924107,171.527048 61.8424504,175.907018 63.6358923,179.8477 C65.6559695,184.2886 70.2806364,187.230774 75.4620105,187.353962 L75.8006945,187.357986 L319.314417,187.357986 L252.680558,35.255535 Z" id="path-2"></path>
        <filter x="-8.0%" y="-4.2%" width="116.1%" height="115.8%" filterUnits="objectBoundingBox" id="filter-3">
            <feOffset dx="0" dy="22" in="SourceAlpha" result="shadowOffsetOuter1"></feOffset>
            <feGaussianBlur stdDeviation="12" in="shadowOffsetOuter1" result="shadowBlurOuter1"></feGaussianBlur>
            <feColorMatrix values="0 0 0 0 0   0 0 0 0 0   0 0 0 0 0  0 0 0 0.0607244318 0" type="matrix" in="shadowBlurOuter1" result="shadowMatrixOuter1"></feColorMatrix>
            <feOffset dx="-6" dy="6" in="SourceAlpha" result="shadowOffsetOuter2"></feOffset>
            <feGaussianBlur stdDeviation="2" in="shadowOffsetOuter2" result="shadowBlurOuter2"></feGaussianBlur>
            <feColorMatrix values="0 0 0 0 1   0 0 0 0 1   0 0 0 0 1  0 0 0 1 0" type="matrix" in="shadowBlurOuter2" result="shadowMatrixOuter2"></feColorMatrix>
            <feMerge>
                <feMergeNode in="shadowMatrixOuter1"></feMergeNode>
                <feMergeNode in="shadowMatrixOuter2"></feMergeNode>
            </feMerge>
        </filter>
        <linearGradient x1="29.8984474%" y1="31.5671595%" x2="114.177117%" y2="74.2216675%" id="linearGradient-4">
            <stop stop-color="#4B39EF" offset="0%"></stop>
            <stop stop-color="#201671" offset="100%"></stop>
        </linearGradient>
        <path d="M540.996226,5.83936143 C559.020617,5.83936143 575.705458,15.5478175 584.158322,31.3299143 C592.257251,46.4469033 591.913532,64.2608356 583.260306,79.0469749 L582.965477,79.5442293 L507.122382,205.829711 C498.545579,220.109869 483.062413,229.022828 466.513407,229.212853 L465.973395,229.215954 L379.365971,229.215302 L415.363018,311.24444 L415.506526,311.484929 L415.727912,311.872281 C424.205144,327.123482 423.998588,345.256126 415.207078,360.280162 L414.910849,360.779803 L339.067753,487.065285 C330.49106,501.345261 315.007996,510.258398 298.459926,510.448427 L297.919945,510.451528 L191.61964,510.450889 L115.202358,590.677271 L115.057779,590.826284 C107.866732,598.102516 98.1507263,602.161553 88.020744,602.161553 C85.4884379,602.161553 82.954493,601.906602 80.447723,601.397961 C68.0908569,598.88696 57.8242769,590.44717 52.8823959,578.806948 L52.74299,578.474652 L12.5281792,486.585706 L12.3166354,486.233537 L12.0969122,485.854179 C12.0604151,485.789682 12.0232958,485.723356 11.9845283,485.653409 C3.50712266,470.403424 3.71245352,452.27094 12.5028495,437.246257 L12.7990422,436.746593 L86.3590253,314.262937 L33.1496085,190.244315 L33.1345771,190.17007 C30.8411177,178.808644 32.6873453,166.960328 38.5773049,156.583013 L38.9025852,156.018449 L39.2032777,155.511086 L115.046828,29.2248471 C123.62462,14.9455768 139.108454,6.03249018 155.655416,5.83936143 L156.19536,5.83936143 L540.996226,5.83936143 Z M142.758356,509.490887 L62.1742763,509.489861 L85.8425342,563.987037 L85.9007023,564.131773 C86.2930755,565.108092 86.927702,565.642288 87.872275,565.835581 C88.7148504,566.008609 89.3965401,565.830484 90.041293,565.245648 L90.153994,565.136457 L142.758356,509.490887 Z M373.122727,322.131875 L129.536425,322.131875 C129.267419,322.131875 128.998438,322.141058 128.729919,322.15931 L128.656142,322.164762 L195.445572,474.234326 L297.90787,474.234326 C302.11959,474.234326 306.176809,471.989984 308.4838,468.385115 L308.666986,468.089865 L384.619787,341.726894 C386.885818,337.95755 387.136368,333.584152 385.340934,329.648557 C383.271017,325.110367 378.46609,322.131875 373.122727,322.131875 Z M104.21545,353.358206 L43.9338797,454.492137 C41.5351997,458.517448 41.3961751,463.231487 43.5441579,467.38008 L43.771998,467.801967 L43.893395,468.008588 L44.1367082,468.404654 L44.6188008,469.118261 L45.1569821,469.815223 L45.6718788,470.400669 L45.7612026,470.495528 L46.1093815,470.846604 L46.4119418,471.133195 C48.3081662,472.846508 50.6522272,473.891818 53.2376126,474.160394 L53.8183933,474.209754 L54.1547041,474.227256 L54.5808293,474.234326 L156.86057,474.234326 L104.21545,353.358206 Z M88.3641023,229.460183 L114.839091,289.898243 L115.354834,289.723225 C119.926871,288.200321 124.707135,287.374817 129.539773,287.299651 L130.265042,287.29401 L366.379178,287.29335 L341.045954,229.461216 L88.3641023,229.460183 Z M540.323456,41.0948964 L295.868108,41.0948964 L362.677723,193.197347 L465.102907,193.197347 C469.322341,193.197347 473.383167,190.9515 475.691346,187.344566 L475.874624,187.049147 L551.832425,60.6886123 C554.097421,56.920217 554.347822,52.5500959 552.554456,48.6179413 C550.526538,44.1728765 545.876838,41.2224686 540.664189,41.0989316 L540.323456,41.0948964 Z M258.445978,41.0948964 L156.587078,41.0948964 C152.398294,41.0948964 148.358403,43.3352815 146.060246,46.9366152 L145.877758,47.2315802 L70.1195639,173.594551 C67.857831,177.366409 67.6078707,181.746379 69.4013126,185.687061 C71.4213898,190.127961 76.0460567,193.070135 81.2274308,193.193324 L81.5661148,193.197347 L325.079837,193.197347 L258.445978,41.0948964 Z" id="path-5"></path>
        <filter x="-5.4%" y="-6.1%" width="117.3%" height="118.3%" filterUnits="objectBoundingBox" id="filter-6">
            <feMorphology radius="2" operator="dilate" in="SourceAlpha" result="shadowSpreadOuter1"></feMorphology>
            <feOffset dx="-1" dy="-6" in="shadowSpreadOuter1" result="shadowOffsetOuter1"></feOffset>
            <feGaussianBlur stdDeviation="2.5" in="shadowOffsetOuter1" result="shadowBlurOuter1"></feGaussianBlur>
            <feComposite in="shadowBlurOuter1" in2="SourceAlpha" operator="out" result="shadowBlurOuter1"></feComposite>
            <feColorMatrix values="0 0 0 0 1   0 0 0 0 1   0 0 0 0 1  0 0 0 0.254479895 0" type="matrix" in="shadowBlurOuter1" result="shadowMatrixOuter1"></feColorMatrix>
            <feMorphology radius="2" operator="dilate" in="SourceAlpha" result="shadowSpreadOuter2"></feMorphology>
            <feOffset dx="20" dy="23" in="shadowSpreadOuter2" result="shadowOffsetOuter2"></feOffset>
            <feGaussianBlur stdDeviation="12" in="shadowOffsetOuter2" result="shadowBlurOuter2"></feGaussianBlur>
            <feComposite in="shadowBlurOuter2" in2="SourceAlpha" operator="out" result="shadowBlurOuter2"></feComposite>
            <feColorMatrix values="0 0 0 0 0   0 0 0 0 0   0 0 0 0 0  0 0 0 0.218340253 0" type="matrix" in="shadowBlurOuter2" result="shadowMatrixOuter2"></feColorMatrix>
            <feMerge>
                <feMergeNode in="shadowMatrixOuter1"></feMergeNode>
                <feMergeNode in="shadowMatrixOuter2"></feMergeNode>
            </feMerge>
        </filter>
    </defs>
    <g id="logoMark_outlineOnWhite" stroke="none" stroke-width="1" fill="none" fill-rule="evenodd">
        <rect fill="#FFFFFF" x="0" y="0" width="1024" height="1024"></rect>
        <g id="Group" transform="translate(247.000000, 221.000000)">
            <g id="logo_fill" opacity="0.4">
                <use fill="black" fill-opacity="1" filter="url(#filter-3)" xlink:href="#path-2"></use>
                <use fill="#FFFFFF" fill-rule="evenodd" xlink:href="#path-2"></use>
                <use fill="url(#linearGradient-1)" fill-rule="evenodd" xlink:href="#path-2"></use>
            </g>
            <g id="logo_fill">
                <use fill="black" fill-opacity="1" filter="url(#filter-6)" xlink:href="#path-5"></use>
                <use fill="#4E39F9" fill-rule="evenodd" xlink:href="#path-5"></use>
                <use stroke="#4E52D7" stroke-width="4" fill="url(#linearGradient-4)" fill-rule="evenodd" xlink:href="#path-5"></use>
            </g>
        </g>
    </g>
</svg>